<svg xmlns="http://www.w3.org/2000/svg" width="512" height="512" viewBox="0 0 512 512">
  <defs>
    <linearGradient id="bg" x1="0%" y1="0%" x2="100%" y2="100%">
      <stop offset="0%" stop-color="#7c3aed"/>
      <stop offset="100%" stop-color="#db2777"/>
    </linearGradient>
    <linearGradient id="shine" x1="0%" y1="0%" x2="100%" y2="100%">
      <stop offset="0%" stop-color="rgba(255,255,255,0.25)"/>
      <stop offset="100%" stop-color="rgba(255,255,255,0)"/>
    </linearGradient>
  </defs>
  <rect width="512" height="512" rx="112" fill="url(#bg)"/>
  <rect width="512" height="512" rx="112" fill="url(#shine)"/>
  <!-- Heart shape -->
  <path d="M256 400 C160 320 80 256 80 192 C80 140 128 100 180 100 C212 100 240 116 256 144 C272 116 300 100 332 100 C384 100 432 140 432 192 C432 256 352 320 256 400Z" fill="rgba(255,255,255,0.95)"/>
  <!-- Clock circle -->
  <circle cx="256" cy="224" r="70" fill="none" stroke="url(#bg)" stroke-width="9"/>
  <!-- Clock hands -->
  <line x1="256" y1="224" x2="256" y2="176" stroke="#7c3aed" stroke-width="8" stroke-linecap="round"/>
  <line x1="256" y1="224" x2="288" y2="214" stroke="#db2777" stroke-width="6.5" stroke-linecap="round"/>
  <!-- Center dot -->
  <circle cx="256" cy="224" r="7" fill="#7c3aed"/>
  <!-- Small sparkle dots -->
  <circle cx="128" cy="120" r="8" fill="rgba(255,255,255,0.6)"/>
  <circle cx="404" cy="380" r="5.5" fill="rgba(255,255,255,0.4)"/>
  <circle cx="104" cy="376" r="6.5" fill="rgba(255,255,255,0.35)"/>
  <circle cx="416" cy="132" r="5" fill="rgba(255,255,255,0.5)"/>
</svg>
