<svg xmlns="http://www.w3.org/2000/svg" width="192" height="192" viewBox="0 0 192 192">
  <defs>
    <linearGradient id="bg" x1="0%" y1="0%" x2="100%" y2="100%">
      <stop offset="0%" stop-color="#7c3aed"/>
      <stop offset="100%" stop-color="#db2777"/>
    </linearGradient>
    <linearGradient id="shine" x1="0%" y1="0%" x2="100%" y2="100%">
      <stop offset="0%" stop-color="rgba(255,255,255,0.25)"/>
      <stop offset="100%" stop-color="rgba(255,255,255,0)"/>
    </linearGradient>
  </defs>
  <rect width="192" height="192" rx="42" fill="url(#bg)"/>
  <rect width="192" height="192" rx="42" fill="url(#shine)"/>
  <!-- Heart shape -->
  <path d="M96 148 C60 120 32 96 32 72 C32 52 48 38 68 38 C80 38 90 44 96 54 C102 44 112 38 124 38 C144 38 160 52 160 72 C160 96 132 120 96 148Z" fill="rgba(255,255,255,0.95)"/>
  <!-- Clock circle -->
  <circle cx="96" cy="84" r="26" fill="none" stroke="url(#bg)" stroke-width="3.5"/>
  <!-- Clock hands -->
  <line x1="96" y1="84" x2="96" y2="66" stroke="#7c3aed" stroke-width="3" stroke-linecap="round"/>
  <line x1="96" y1="84" x2="108" y2="80" stroke="#db2777" stroke-width="2.5" stroke-linecap="round"/>
  <!-- Center dot -->
  <circle cx="96" cy="84" r="2.5" fill="#7c3aed"/>
  <!-- Small sparkle dots -->
  <circle cx="48" cy="46" r="3" fill="rgba(255,255,255,0.6)"/>
  <circle cx="152" cy="142" r="2" fill="rgba(255,255,255,0.4)"/>
  <circle cx="40" cy="140" r="2.5" fill="rgba(255,255,255,0.35)"/>
  <circle cx="156" cy="50" r="2" fill="rgba(255,255,255,0.5)"/>
</svg>
