<svg xmlns="http://www.w3.org/2000/svg" width="32" height="32" viewBox="0 0 32 32">
  <defs>
    <linearGradient id="bg" x1="0%" y1="0%" x2="100%" y2="100%">
      <stop offset="0%" stop-color="#7c3aed"/>
      <stop offset="100%" stop-color="#db2777"/>
    </linearGradient>
  </defs>
  <rect width="32" height="32" rx="7" fill="url(#bg)"/>
  <path d="M16 25 C10 20 5 16 5 12 C5 8.5 8 6.5 11.3 6.5 C13.3 6.5 15 7.5 16 9 C17 7.5 18.7 6.5 20.7 6.5 C24 6.5 27 8.5 27 12 C27 16 22 20 16 25Z" fill="rgba(255,255,255,0.95)"/>
  <circle cx="16" cy="14" r="4.5" fill="none" stroke="url(#bg)" stroke-width="1.2"/>
  <line x1="16" y1="14" x2="16" y2="10.5" stroke="#7c3aed" stroke-width="1.1" stroke-linecap="round"/>
  <line x1="16" y1="14" x2="18.5" y2="13.3" stroke="#db2777" stroke-width="0.9" stroke-linecap="round"/>
  <circle cx="16" cy="14" r="0.8" fill="#7c3aed"/>
</svg>
